<svg width="40" height="41" viewBox="0 0 40 41" fill="none" xmlns="http://www.w3.org/2000/svg">
<path d="M22.7239 14.3692C21.7943 14.4448 20.7203 14.5204 19.6464 14.6683C18.0019 14.8851 16.3574 15.1809 14.9993 15.8391C12.3535 16.9443 10.5648 19.2915 10.5648 22.7428C10.5648 27.077 13.2832 29.2752 16.7143 29.2752C17.8609 29.2752 18.7895 29.1317 19.6464 28.9105C21.0078 28.4702 22.1522 27.6618 23.5104 26.1964C24.299 27.2971 24.5116 27.8119 25.8719 28.9861C26.2288 29.134 26.5857 29.134 26.8721 28.9127C27.7301 28.18 29.2303 26.8579 30.019 26.1241C30.3748 25.8272 30.3043 25.3902 30.0906 25.0211C29.3019 23.9937 28.5176 23.1109 28.5176 21.1317V14.5238C28.5176 11.7296 28.7292 9.16226 26.731 7.25537C25.0844 5.70874 22.5102 5.125 20.5099 5.125C20.2235 5.125 19.9382 5.125 19.6508 5.125C16.0038 5.34404 12.1431 6.95628 11.2829 11.5862C11.1419 12.1699 11.5725 12.3934 11.8578 12.4679L15.8617 12.9838C16.2912 12.906 16.5049 12.5413 16.5754 12.1721C16.9367 10.561 18.2221 9.75267 19.6518 9.60479C19.7245 9.60479 19.7961 9.60479 19.9393 9.60479C20.7963 9.60479 21.7248 9.97393 22.2271 10.7022C22.7944 11.5862 22.7272 12.7625 22.7272 13.7877L22.7239 14.3692ZM21.9374 23.1064C21.4374 24.1349 20.5782 24.7954 19.6486 25.0166C19.5065 25.0166 19.2939 25.0922 19.078 25.0922C17.5051 25.0922 16.5722 23.8436 16.5722 22.0068C16.5722 19.6607 17.9325 18.5555 19.6486 18.0429C20.5782 17.8239 21.6522 17.7482 22.725 17.7482V18.63C22.7239 20.32 22.7912 21.6398 21.9374 23.1064ZM38.4205 33.3013V33.5404C38.3825 34.9758 37.6438 37.7299 35.8951 39.2454C35.5458 39.5234 35.1955 39.3644 35.3495 38.963C35.8583 37.6899 37.0211 34.7345 36.4777 34.0574C36.0926 33.5404 34.4969 33.5793 33.1377 33.6994C32.5172 33.7794 31.9715 33.8161 31.5441 33.9028C31.1569 33.9395 31.0766 33.5837 31.4671 33.3058C31.9726 32.9466 32.5183 32.6686 33.1388 32.4652C35.3506 31.7891 37.9182 32.1872 38.2686 32.6275C38.3445 32.7409 38.4205 32.98 38.4205 33.3013ZM34.7301 36.0921C34.2246 36.4891 33.6833 36.8504 33.1377 37.174C29.0579 39.688 23.775 41 19.1919 41C11.8079 41 5.20384 38.2069 0.1933 33.5404C-0.236268 33.1801 0.114112 32.6631 0.619613 32.9411C6.01958 36.1722 12.7017 38.1291 19.6171 38.1291C23.9703 38.1291 28.6663 37.2908 33.1366 35.4928C33.4457 35.3772 33.7961 35.2126 34.1074 35.097C34.8071 34.7734 35.4298 35.5773 34.7301 36.0921Z" fill="#F8F2AE"/>
</svg>
