<svg width="40" height="41" viewBox="0 0 40 41" fill="none" xmlns="http://www.w3.org/2000/svg">
<g clip-path="url(#clip0_101_64)">
<path d="M5.3427 15.0717C1.96106 21.0866 4.11083 30.2145 7.85037 35.7491C9.71699 38.5162 11.6068 41 14.1953 41C14.2441 41 14.293 40.999 14.3431 40.997C15.5592 40.9473 16.438 40.5635 17.2877 40.1926C18.2417 39.7759 19.2283 39.345 20.7759 39.345C22.2481 39.345 23.1877 39.7619 24.0963 40.1649C24.9917 40.562 25.9141 40.9728 27.277 40.9466C30.1927 40.8909 31.9828 38.2108 33.5622 35.8463C35.2104 33.3776 36.0371 30.9806 36.3161 30.0647L36.3273 30.0282C36.3805 29.8654 36.3054 29.6877 36.1532 29.6161C36.149 29.6141 36.1335 29.6075 36.1292 29.6056C35.6157 29.3904 31.1119 27.3424 31.0645 21.7605C31.0206 17.2255 34.4433 14.824 35.1297 14.3887L35.1617 14.3683C35.2361 14.3192 35.2879 14.2414 35.3054 14.1524C35.323 14.0635 35.3047 13.971 35.2548 13.8963C32.8923 10.3525 29.2713 9.81847 27.8135 9.75421C27.602 9.73257 27.3836 9.72168 27.1643 9.72168C25.4521 9.72168 23.8118 10.3845 22.494 10.9171C21.5844 11.2848 20.7987 11.6023 20.2568 11.6023C19.6479 11.6023 18.8577 11.2809 17.9427 10.9088C16.7191 10.411 15.3322 9.84696 13.864 9.84696C13.829 9.84696 13.7945 9.84737 13.7605 9.84804C10.3468 9.89953 7.12106 11.9014 5.3427 15.0717Z" fill="#F8F2AE"/>
<path d="M27.8166 0.000319326C25.7493 0.086621 23.2695 1.39096 21.7872 3.17049C20.5275 4.66625 19.297 7.16013 19.6212 9.6739C19.6415 9.83118 19.7664 9.95257 19.9207 9.9648C20.0603 9.97596 20.2027 9.9816 20.3446 9.98174C22.366 9.98174 24.5466 8.83548 26.0358 6.98981C27.6031 5.0409 28.3956 2.53977 28.1559 0.299418C28.137 0.123857 27.9863 -0.00653641 27.8166 0.000319326Z" fill="#F8F2AE"/>
</g>
<defs>
<clipPath id="clip0_101_64">
<rect width="40" height="41" fill="white"/>
</clipPath>
</defs>
</svg>
