<svg width="40" height="45" viewBox="0 0 40 45" fill="none" xmlns="http://www.w3.org/2000/svg">
<path d="M19.9999 16.875C18.6738 16.875 17.4021 17.4676 16.4644 18.5225C15.5267 19.5774 14.9999 21.0082 14.9999 22.5C14.9999 23.9918 15.5267 25.4226 16.4644 26.4775C17.4021 27.5324 18.6738 28.125 19.9999 28.125C21.326 28.125 22.5978 27.5324 23.5355 26.4775C24.4731 25.4226 24.9999 23.9918 24.9999 22.5C24.9999 21.0082 24.4731 19.5774 23.5355 18.5225C22.5978 17.4676 21.326 16.875 19.9999 16.875ZM19.9999 13.125C22.2101 13.125 24.3297 14.1127 25.8925 15.8709C27.4553 17.629 28.3333 20.0136 28.3333 22.5C28.3333 24.9864 27.4553 27.371 25.8925 29.1291C24.3297 30.8873 22.2101 31.875 19.9999 31.875C17.7898 31.875 15.6702 30.8873 14.1074 29.1291C12.5446 27.371 11.6666 24.9864 11.6666 22.5C11.6666 20.0136 12.5446 17.629 14.1074 15.8709C15.6702 14.1127 17.7898 13.125 19.9999 13.125V13.125ZM30.8333 12.6562C30.8333 13.2779 30.6138 13.874 30.2231 14.3135C29.8324 14.7531 29.3025 15 28.7499 15C28.1974 15 27.6675 14.7531 27.2768 14.3135C26.8861 13.874 26.6666 13.2779 26.6666 12.6562C26.6666 12.0346 26.8861 11.4385 27.2768 10.999C27.6675 10.5594 28.1974 10.3125 28.7499 10.3125C29.3025 10.3125 29.8324 10.5594 30.2231 10.999C30.6138 11.4385 30.8333 12.0346 30.8333 12.6562V12.6562ZM19.9999 7.5C15.8766 7.5 15.2033 7.51313 13.2849 7.60875C11.9783 7.67813 11.1016 7.875 10.2883 8.23125C9.56492 8.54625 9.04325 8.92312 8.48825 9.54937C7.9666 10.1164 7.56551 10.8086 7.31492 11.5744C6.99825 12.4931 6.82325 13.4775 6.76325 14.9456C6.67659 17.0156 6.66659 17.7394 6.66659 22.5C6.66659 27.1387 6.67825 27.8962 6.76325 30.0544C6.82492 31.5225 6.99992 32.5106 7.31492 33.4238C7.59825 34.2394 7.93159 34.8263 8.48492 35.4488C9.04659 36.0788 9.56825 36.4556 10.2849 36.7669C11.1083 37.125 11.9849 37.3237 13.2849 37.3912C15.1249 37.4887 15.7683 37.5 19.9999 37.5C24.1233 37.5 24.7966 37.4869 26.7149 37.3912C28.0183 37.3219 28.8966 37.125 29.7099 36.7706C30.4316 36.4538 30.9566 36.0769 31.5099 35.4544C32.0716 34.8225 32.4066 34.2356 32.6833 33.4294C32.9999 32.505 33.1766 31.5169 33.2366 30.0544C33.3233 27.9844 33.3333 27.2606 33.3333 22.5C33.3333 17.8613 33.3216 17.1038 33.2366 14.9456C33.1749 13.4794 32.9999 12.4894 32.6833 11.5744C32.4321 10.8094 32.0317 10.1174 31.5116 9.54937C31.0078 8.96221 30.3924 8.51094 29.7116 8.22937C28.8949 7.87312 28.0183 7.67625 26.7149 7.60875C24.8749 7.51125 24.2316 7.5 19.9999 7.5ZM19.9999 3.75C24.5283 3.75 25.0933 3.76875 26.8699 3.8625C28.6449 3.95625 29.8533 4.26938 30.9166 4.73438C32.0166 5.21063 32.9433 5.85562 33.8699 6.89625C34.7174 7.83355 35.3732 8.96735 35.7916 10.2187C36.2033 11.4131 36.4833 12.7744 36.5666 14.7712C36.6449 16.77 36.6666 17.4056 36.6666 22.5C36.6666 27.5944 36.6499 28.23 36.5666 30.2287C36.4833 32.2256 36.2033 33.585 35.7916 34.7812C35.3744 36.0333 34.7185 37.1674 33.8699 38.1038C33.0365 39.0568 32.0288 39.7945 30.9166 40.2656C29.8549 40.7288 28.6449 41.0438 26.8699 41.1375C25.0933 41.2256 24.5283 41.25 19.9999 41.25C15.4716 41.25 14.9066 41.2313 13.1299 41.1375C11.3549 41.0438 10.1466 40.7288 9.08325 40.2656C7.97046 39.7959 6.96246 39.058 6.12992 38.1038C5.28226 37.1666 4.62647 36.0328 4.20825 34.7812C3.79492 33.5869 3.51659 32.2256 3.43325 30.2287C3.35492 28.23 3.33325 27.5944 3.33325 22.5C3.33325 17.4056 3.34992 16.77 3.43325 14.7712C3.51659 12.7725 3.79492 11.415 4.20825 10.2187C4.62531 8.96659 5.28126 7.83248 6.12992 6.89625C6.9627 5.94231 7.97063 5.20449 9.08325 4.73438C10.1466 4.26938 11.3533 3.95625 13.1299 3.8625C14.9066 3.77437 15.4716 3.75 19.9999 3.75Z" fill="#F8F2AE"/>
</svg>
