<svg width="40" height="41" viewBox="0 0 40 41" fill="none" xmlns="http://www.w3.org/2000/svg">
<path d="M37.3333 20.5C37.3333 30.3118 29.5741 38.2667 20 38.2667V41C31.0469 41 40 31.8212 40 20.5H37.3333ZM20 38.2667C10.426 38.2667 2.66667 30.3118 2.66667 20.5H0C0 31.8212 8.95304 41 20 41V38.2667ZM2.66667 20.5C2.66667 10.6881 10.426 2.73333 20 2.73333V0C8.95304 0 0 9.1787 0 20.5H2.66667ZM20 2.73333C29.5741 2.73333 37.3333 10.6881 37.3333 20.5H40C40 9.1787 31.0469 0 20 0V2.73333ZM9.76507 27.6509C12.3953 26.9937 15.6305 26.7066 18.8111 27.027C22.0002 27.3481 25.0353 28.2692 27.3491 29.9368L28.8829 27.701C26.0738 25.6764 22.5487 24.6569 19.0719 24.3067C15.5864 23.9557 12.0497 24.2667 9.13349 24.9954L9.76507 27.6509ZM8.86997 21.8458C18.0587 20.1795 24.4649 21.032 29.7731 24.9378L31.3283 22.7174C25.1996 18.2079 17.9515 17.4232 8.40539 19.1543L8.86997 21.8458ZM8.27027 15.9655C11.8783 14.6588 16.2785 14.1163 20.6013 14.4792C24.929 14.8424 29.0779 16.104 32.2363 18.303L33.7347 16.042C30.0968 13.5093 25.47 12.1454 20.819 11.7549C16.1631 11.3641 11.3818 11.9397 7.38189 13.3882L8.27027 15.9655Z" fill="#F8F2AE"/>
</svg>
