<svg width="40" height="41" viewBox="0 0 40 41" fill="none" xmlns="http://www.w3.org/2000/svg">
<g clip-path="url(#clip0_101_55)">
<path fill-rule="evenodd" clip-rule="evenodd" d="M25.7499 0H28.6666V2.39167C28.6666 7.67519 33.89 11.9583 40.3333 11.9583V14.35C35.5628 14.35 31.3272 12.4717 28.6666 9.56784V26.3083C28.6666 31.5918 23.4432 35.875 16.9999 35.875C10.5566 35.875 5.33325 31.5918 5.33325 26.3083C5.33325 21.0248 10.5566 16.7417 16.9999 16.7417V19.1333C12.1674 19.1333 8.24992 22.3457 8.24992 26.3083C8.24992 30.2711 12.1674 33.4833 16.9999 33.4833C21.8324 33.4833 25.7499 30.2711 25.7499 26.3083V0Z" fill="#F8F2AE"/>
</g>
<defs>
<clipPath id="clip0_101_55">
<rect width="40" height="41" fill="white"/>
</clipPath>
</defs>
</svg>
