<svg width="40" height="41" viewBox="0 0 40 41" fill="none" xmlns="http://www.w3.org/2000/svg">
<path d="M32.0457 5.43878H7.95429C3.56816 5.43878 0 9.55897 0 14.6225V30.08C0 35.1445 3.56816 39.2638 7.95429 39.2638H32.0457C36.4318 39.2638 40 35.1436 40 30.08V14.6225C40 9.55897 36.4318 5.43878 32.0457 5.43878ZM38.3673 30.081C38.3673 34.1091 35.5314 37.3855 32.0457 37.3855H7.95429C4.46857 37.3855 1.63265 34.1081 1.63265 30.081V14.6225C1.63265 10.5954 4.46857 7.318 7.95429 7.318H32.0457C35.5314 7.318 38.3673 10.5954 38.3673 14.6225V30.081Z" fill="#F8F2AE"/>
<path d="M27.2326 22.0116L15.9224 14.3866C15.671 14.2175 15.3583 14.2147 15.1045 14.3819C14.8506 14.5492 14.6938 14.8602 14.6938 15.1975V30.4464C14.6938 30.7828 14.8506 31.0948 15.1036 31.262C15.2294 31.3447 15.3698 31.386 15.5102 31.386C15.653 31.386 15.7951 31.3428 15.9224 31.2573L27.2326 23.6343C27.4824 23.4661 27.6367 23.1569 27.6367 22.8234C27.6367 22.4898 27.4832 22.1797 27.2326 22.0116ZM16.3265 28.8068V16.8362L25.2049 22.8224L16.3265 28.8068Z" fill="#F8F2AE"/>
</svg>
